# xmcd
#
# Track frame offsets:
#	150
#	13105
#	33167
#	54082
#	72635
#	95615
#	118397
#	136575
#	162007
#	181850
#	197112
#	213822
#	234180
#	254490
#
# Disc length: 3724 seconds
#
# Revision: 4
# Processed by: cddbd v1.5.2PL0 Copyright (c) Steve Scherf et al.
# Submitted via: audiograbber 1.83.01
#
DISCID=b80e8a0e
DTITLE=Don McLean - Starry, Starry Night  [CD1)
DYEAR=1900
DGENRE=Oldies
TTITLE0=Everyday
TTITLE1=La La Love You
TTITLE2=Homeless Brother
TTITLE3=If We Try
TTITLE4=Winterwood
TTITLE5=Crossroads
TTITLE6=Castles In The Air
TTITLE7=Tulsa Time - Deep In The Heart Of Texas
TTITLE8=Castles In The Air  (Retake)
TTITLE9=Angry Words
TTITLE10=My Love Was True
TTITLE11=Singin' The Blues
TTITLE12=You Gave Me A Mountain
TTITLE13=Crying
EXTD=
EXTT0=
EXTT1=
EXTT2=
EXTT3=
EXTT4=
EXTT5=
EXTT6=
EXTT7=
EXTT8=
EXTT9=
EXTT10=
EXTT11=
EXTT12=
EXTT13=
PLAYORDER=
